<svg width="482" height="552" viewBox="0 0 482 552" version="1.1" xmlns="http://www.w3.org/2000/svg" xmlns:xlink="http://www.w3.org/1999/xlink">
<title>Group</title>
<desc>Created using Figma</desc>
<g id="Canvas" transform="translate(242 269)">
<g id="Group">
<g id="shadow">
<use xlink:href="#path0_fill" transform="translate(-242 116)" fill="#E8E8E8"/>
</g>
<g id="v2">
<g id="Subtract">
<use xlink:href="#path1_fill" transform="translate(-219.238 -268.144)" fill="#242424"/>
</g>
<g id="Rectangle">
<use xlink:href="#path2_fill" transform="translate(7 -13)" fill="#E8E8E8"/>
</g>
<g id="Subtract">
<use xlink:href="#path3_fill" transform="translate(-115.686 -264.76)" fill="#242424"/>
</g>
</g>
</g>
</g>
<defs>
<path id="path0_fill" fill-rule="evenodd" d="M 54.9649 7.62939e-06L 0 31.0143L 241 167L 482 31.0143L 427.035 0L 241 104.971L 54.9649 7.62939e-06Z"/>
<path id="path1_fill" fill-rule="evenodd" d="M 242.238 11L 424.951 116.489C 426.188 117.203 426.951 118.524 426.951 119.953L 426.951 356.334C 426.951 357.763 426.188 359.084 424.951 359.798L 220.238 477.989C 219.001 478.703 217.476 478.703 216.238 477.989L 11.5263 359.798C 10.2887 359.084 9.52628 357.763 9.52628 356.334L 9.52628 119.953C 9.52628 118.524 10.2887 117.203 11.5263 116.489L 192.238 12.1547L 192.238 1.15469L 2 110.989C 0.76239 111.703 0 113.024 0 114.453L 0 361.834C 0 363.263 0.76239 364.584 2 365.298L 216.238 488.989C 217.476 489.703 219.001 489.703 220.238 488.989L 434.477 365.298C 435.714 364.584 436.477 363.263 436.477 361.834L 436.477 114.453C 436.477 113.024 435.714 111.703 434.477 110.989L 242.238 0L 242.238 11Z"/>
<path id="path2_fill" d="M 0 37.2381L 63 0L 63 64.7619L 0 102L 0 37.2381Z"/>
<path id="path3_fill" fill-rule="evenodd" d="M 79.186 223.695L 79.186 5.46878L 90.186 -0.863495L 90.186 217.703L 112.6 205.494C 115.487 203.922 118.982 203.954 121.839 205.578L 190.881 244.828C 193.851 246.517 195.686 249.67 195.686 253.087L 195.686 320.26L 193.736 320.26L 184.686 315.06L 184.686 253.96L 117.129 215.554L 90.186 230.229L 90.186 313.477C 90.186 320.712 82.4207 325.292 76.089 321.791L 3.40302 281.6C -3.15807 277.972 -3.12811 268.529 3.45588 264.943L 79.186 223.695ZM 79.186 236.22L 11.1178 273.296L 79.186 310.934L 79.186 236.22Z"/>
</defs>
</svg>
