<svg width="50" height="57" viewBox="0 0 50 57" version="1.1" xmlns="http://www.w3.org/2000/svg" xmlns:xlink="http://www.w3.org/1999/xlink">
<title>logo</title>
<desc>Created using Figma</desc>
<g id="Canvas" transform="matrix(0.5 0 0 0.5 -32 43.5)">
<g id="logo">
<g id="Group">
<g id="shadow">
<use xlink:href="#path0_fill" transform="translate(64 -9)" fill="#E8E8E8"/>
</g>
<g id="v2">
<g id="Subtract">
<use xlink:href="#path1_fill" transform="translate(69 -87)" fill="#242424"/>
</g>
<g id="Rectangle">
<use xlink:href="#path2_fill" transform="translate(116.686 -33.3157)" fill="#E8E8E8"/>
</g>
<g id="Subtract">
<use xlink:href="#path3_fill" transform="translate(91.9231 -86.3782)" fill="#242424"/>
</g>
</g>
</g>
</g>
</g>
<defs>
<path id="path0_fill" fill-rule="evenodd" d="M 11.4035 0L 0 6.5L 50 35L 100 6.5L 88.5965 0L 50 22L 11.4035 0Z"/>
<path id="path1_fill" fill-rule="evenodd" d="M 51.0587 3.92064L 87.9352 25.2113C 88.2446 25.39 88.4352 25.7201 88.4352 26.0774L 88.4352 73.9227C 88.4352 74.2799 88.2446 74.61 87.9352 74.7887L 46.5 98.7113C 46.1906 98.89 45.8094 98.89 45.5 98.7113L 4.06475 74.7887C 3.75536 74.61 3.56475 74.2799 3.56475 73.9227L 3.56475 26.0774C 3.56475 25.7201 3.75536 25.39 4.06475 25.2113L 40.5198 4.16402L 40.5198 0.24295L 0.500656 23.3074C 0.190884 23.4859 0 23.8162 0 24.1738L 0 76.0409C 0 76.3985 0.190884 76.7288 0.500656 76.9073L 45.5007 102.842C 45.8097 103.021 46.1903 103.021 46.4993 102.842L 91.4993 76.9073C 91.8091 76.7288 92 76.3985 92 76.0409L 92 24.1738C 92 23.8162 91.8091 23.4859 91.4993 23.3074L 51.0587 0L 51.0587 3.92064Z"/>
<path id="path2_fill" d="M 0 7.8352L 13.2791 0L 13.2791 13.6264L 0 21.4616L 0 7.8352Z"/>
<path id="path3_fill" fill-rule="evenodd" d="M 15.2536 46.953L 15.2536 1.43662L 18.2536 -0.287323L 18.2536 45.3218L 22.3993 43.0677C 23.1581 42.6551 24.0762 42.6634 24.8274 43.0897L 39.2246 51.2601C 40.0072 51.7042 40.4907 52.5345 40.4907 53.4343L 40.4907 67.4754L 39.7389 67.4754L 37.4907 66.1858L 37.4907 53.7255L 23.5883 45.836L 18.2536 48.7366L 18.2536 65.7812C 18.2536 67.6844 16.2117 68.8896 14.5455 67.9699L -0.289413 59.7815C -2.01819 58.8273 -2.01031 56.3397 -0.275513 55.3965L 15.2536 46.953ZM 15.2536 50.3677L 1.95935 57.5961L 15.2536 64.9341L 15.2536 50.3677Z"/>
</defs>
</svg>
